<mxfile host="65bd71144e">
    <diagram id="flPEsadEzpad7D-omNdb" name="Page-1">
        <mxGraphModel dx="2204" dy="2610" grid="1" gridSize="10" guides="1" tooltips="1" connect="1" arrows="1" fold="1" page="1" pageScale="1" pageWidth="850" pageHeight="1100" background="#FFFFFF" math="0" shadow="0">
            <root>
                <mxCell id="0"/>
                <mxCell id="1" parent="0"/>
                <mxCell id="75" value="" style="edgeStyle=none;html=1;" edge="1" parent="1" source="59" target="5">
                    <mxGeometry relative="1" as="geometry"/>
                </mxCell>
                <mxCell id="76" value="" style="edgeStyle=none;html=1;" edge="1" parent="1" source="4" target="33">
                    <mxGeometry relative="1" as="geometry"/>
                </mxCell>
                <mxCell id="4" value="🥉 BRONCE&#xa;(Datos crudos sin esquema)" style="swimlane;startSize=40;horizontal=1;childLayout=flowLayout;flowOrientation=north;resizable=0;interRankCellSpacing=50;containerType=tree;fontSize=12;fillColor=#ffcc99;strokeColor=#36393d;swimlaneLine=1;glass=0;labelBackgroundColor=none;fillStyle=solid;" parent="1" vertex="1">
                    <mxGeometry x="330" y="-970" width="190" height="210" as="geometry"/>
                </mxCell>
                <mxCell id="5" value="Extraccion desde RUV" style="whiteSpace=wrap;html=1;" parent="4" vertex="1">
                    <mxGeometry x="20" y="60" width="150" height="40" as="geometry"/>
                </mxCell>
                <mxCell id="38" value="" style="edgeStyle=none;html=1;noEdgeStyle=1;orthogonal=1;" edge="1" source="5" target="39" parent="4">
                    <mxGeometry relative="1" as="geometry">
                        <Array as="points">
                            <mxPoint x="95" y="112"/>
                            <mxPoint x="95" y="138"/>
                        </Array>
                    </mxGeometry>
                </mxCell>
                <mxCell id="39" value="Almacenamiento inicial" style="whiteSpace=wrap;html=1;" vertex="1" parent="4">
                    <mxGeometry x="20" y="150" width="150" height="40" as="geometry"/>
                </mxCell>
                <mxCell id="54" value="" style="edgeStyle=none;html=1;" edge="1" parent="1" source="28" target="41">
                    <mxGeometry relative="1" as="geometry"/>
                </mxCell>
                <mxCell id="77" value="" style="edgeStyle=none;html=1;" edge="1" parent="1" source="32" target="29">
                    <mxGeometry relative="1" as="geometry"/>
                </mxCell>
                <mxCell id="32" value="🔧 COMPONENTES DE DISEÑO TECNICO" style="swimlane;startSize=20;horizontal=1;childLayout=flowLayout;flowOrientation=north;resizable=0;interRankCellSpacing=50;containerType=tree;fontSize=12;html=1;fillColor=#cce5ff;strokeColor=#36393d;" vertex="1" parent="1">
                    <mxGeometry x="285" y="-740" width="280" height="190" as="geometry"/>
                </mxCell>
                <mxCell id="33" value="Modelo Entidad-Relación (MER)" style="whiteSpace=wrap;html=1;" vertex="1" parent="32">
                    <mxGeometry x="20" y="40" width="240" height="40" as="geometry"/>
                </mxCell>
                <mxCell id="34" value="" style="edgeStyle=none;html=1;noEdgeStyle=1;orthogonal=1;" edge="1" parent="32" source="33" target="35">
                    <mxGeometry relative="1" as="geometry">
                        <Array as="points">
                            <mxPoint x="140" y="92"/>
                            <mxPoint x="140" y="118"/>
                        </Array>
                    </mxGeometry>
                </mxCell>
                <mxCell id="35" value="&lt;span style=&quot;color: rgb(0, 0, 0);&quot;&gt;Creación de bases de datos relacional (SQL - DDL)&lt;/span&gt;" style="whiteSpace=wrap;html=1;" vertex="1" parent="32">
                    <mxGeometry x="23.715000000000003" y="130" width="232.57" height="40" as="geometry"/>
                </mxCell>
                <mxCell id="70" value="" style="edgeStyle=none;html=1;" edge="1" parent="1" source="40" target="56">
                    <mxGeometry relative="1" as="geometry"/>
                </mxCell>
                <mxCell id="40" value="🥇 ORO&lt;div&gt;(Datos estructurados y consultables)&lt;/div&gt;" style="swimlane;startSize=40;horizontal=1;childLayout=flowLayout;flowOrientation=north;resizable=0;interRankCellSpacing=50;containerType=tree;fontSize=12;html=1;fillColor=#ffff88;strokeColor=#36393d;" vertex="1" parent="1">
                    <mxGeometry x="305" y="-290" width="240" height="210" as="geometry"/>
                </mxCell>
                <mxCell id="41" value="Poblacion de la base de datos" style="whiteSpace=wrap;html=1;" vertex="1" parent="40">
                    <mxGeometry x="20" y="60" width="200" height="40" as="geometry"/>
                </mxCell>
                <mxCell id="46" value="" style="edgeStyle=none;html=1;noEdgeStyle=1;orthogonal=1;" edge="1" source="41" target="47" parent="40">
                    <mxGeometry relative="1" as="geometry">
                        <Array as="points">
                            <mxPoint x="120" y="112"/>
                            <mxPoint x="120" y="138"/>
                        </Array>
                    </mxGeometry>
                </mxCell>
                <mxCell id="47" value="Generación de queries para análisis e insights" style="whiteSpace=wrap;html=1;" vertex="1" parent="40">
                    <mxGeometry x="25" y="150" width="190" height="40" as="geometry"/>
                </mxCell>
                <mxCell id="55" value="📊 CONSUMO DE DATOS&lt;div&gt;(Visualización e informes)&lt;/div&gt;" style="swimlane;startSize=40;horizontal=1;childLayout=flowLayout;flowOrientation=north;resizable=0;interRankCellSpacing=50;containerType=tree;fontSize=12;html=1;fillColor=#cce5ff;strokeColor=#36393d;" vertex="1" parent="1">
                    <mxGeometry x="285" y="-60" width="280" height="210" as="geometry"/>
                </mxCell>
                <mxCell id="56" value="Dashboard en Power BI" style="whiteSpace=wrap;html=1;" vertex="1" parent="55">
                    <mxGeometry x="20" y="60" width="240" height="40" as="geometry"/>
                </mxCell>
                <mxCell id="57" value="" style="edgeStyle=none;html=1;noEdgeStyle=1;orthogonal=1;" edge="1" parent="55" source="56" target="58">
                    <mxGeometry relative="1" as="geometry">
                        <Array as="points">
                            <mxPoint x="140" y="112"/>
                            <mxPoint x="140" y="138"/>
                        </Array>
                    </mxGeometry>
                </mxCell>
                <mxCell id="58" value="&lt;span style=&quot;color: rgb(0, 0, 0);&quot;&gt;Informes por informacion sociodemografica, año, departamento&lt;/span&gt;" style="whiteSpace=wrap;html=1;" vertex="1" parent="55">
                    <mxGeometry x="23.715000000000003" y="150" width="232.57" height="40" as="geometry"/>
                </mxCell>
                <mxCell id="59" value="📩 FUENTE DE DATOS" style="swimlane;startSize=20;horizontal=1;childLayout=flowLayout;flowOrientation=north;resizable=0;interRankCellSpacing=50;containerType=tree;fontSize=12;html=1;fillColor=#cce5ff;strokeColor=#36393d;rounded=0;glass=0;shadow=0;" vertex="1" parent="1">
                    <mxGeometry x="285" y="-1090" width="280" height="100" as="geometry"/>
                </mxCell>
                <mxCell id="60" value="Registro Unico de Victimas (RUV)" style="whiteSpace=wrap;html=1;" vertex="1" parent="59">
                    <mxGeometry x="20" y="40" width="240" height="40" as="geometry"/>
                </mxCell>
                <mxCell id="28" value="🥈 PLATA&lt;div&gt;&lt;span style=&quot;background-color: transparent;&quot;&gt;(Datos limpios y listos para modelar)&lt;/span&gt;&lt;/div&gt;" style="swimlane;startSize=38;horizontal=1;childLayout=flowLayout;flowOrientation=north;resizable=0;interRankCellSpacing=50;containerType=tree;fontSize=12;html=1;fillColor=#eeeeee;strokeColor=#36393d;" vertex="1" parent="1">
                    <mxGeometry x="305" y="-530" width="240" height="218" as="geometry"/>
                </mxCell>
                <mxCell id="29" value="Análisis exploratorio (EDA)" style="whiteSpace=wrap;html=1;" vertex="1" parent="28">
                    <mxGeometry x="20" y="58" width="200" height="40" as="geometry"/>
                </mxCell>
                <mxCell id="30" value="" style="edgeStyle=none;html=1;noEdgeStyle=1;orthogonal=1;" edge="1" source="29" target="31" parent="28">
                    <mxGeometry relative="1" as="geometry">
                        <Array as="points">
                            <mxPoint x="120" y="110"/>
                            <mxPoint x="120" y="136"/>
                        </Array>
                    </mxGeometry>
                </mxCell>
                <mxCell id="31" value="Limpieza de datos&lt;div&gt;(nulos, duplicados, outliers)&lt;/div&gt;" style="whiteSpace=wrap;html=1;" vertex="1" parent="28">
                    <mxGeometry x="23.22" y="148" width="193.56" height="50" as="geometry"/>
                </mxCell>
            </root>
        </mxGraphModel>
    </diagram>
</mxfile>